<?xml version="1.0" encoding="UTF-8"?>
<svg width="45px" height="45px" viewBox="0 0 45 45" version="1.1" xmlns="http://www.w3.org/2000/svg" xmlns:xlink="http://www.w3.org/1999/xlink">
    <!-- Generator: Sketch 46.2 (44496) - http://www.bohemiancoding.com/sketch -->
    <title>revert</title>
    <desc>Created with Sketch.</desc>
    <defs></defs>
    <g id="Page-1" stroke="none" stroke-width="1" fill="none" fill-rule="evenodd">
        <g id="revert">
            <polygon id="Rectangle" fill="#E2E1E0" points="0 0 45 0 45 45"></polygon>
            <path d="M37.5019531,8.21679688 C38.6907612,9.60612674 39.2851562,11.2210194 39.2851562,13.0615234 C39.2851562,15.1168723 38.5493238,16.876783 37.0776367,18.3413086 C35.6059497,19.8058341 33.8460389,20.5380859 31.7978516,20.5380859 C29.7496642,20.5380859 27.9915438,19.8022535 26.5234375,18.3305664 C25.0553312,16.8588794 24.3212891,15.1025493 24.3212891,13.0615234 C24.3212891,11.0348206 25.0159436,9.30176501 26.4052734,7.86230469 L24.3427734,6.93847656 L29.4667969,5.57421875 L28.1025391,10.7089844 L27.1572266,8.61425781 C25.9684185,9.86751929 25.3740234,11.3499263 25.3740234,13.0615234 C25.3740234,14.823251 26.0042255,16.3343036 27.2646484,17.5947266 C28.5250714,18.8551495 30.036124,19.4853516 31.7978516,19.4853516 C33.5595791,19.4853516 35.0706317,18.8551495 36.3310547,17.5947266 C37.5914777,16.3343036 38.2216797,14.823251 38.2216797,13.0615234 C38.2216797,11.4788332 37.7096405,10.0859435 36.6855469,8.8828125 L37.5019531,8.21679688 Z" id="↻" fill="#000000"></path>
        </g>
    </g>
</svg>